<svg xmlns="http://www.w3.org/2000/svg" xmlns:xlink="http://www.w3.org/1999/xlink" version="1.1" width="256" height="256" viewBox="0 0 256 256" xml:space="preserve">

<defs>
</defs>
<g style="stroke: none; stroke-width: 0; stroke-dasharray: none; stroke-linecap: butt; stroke-linejoin: miter; stroke-miterlimit: 10; fill: none; fill-rule: nonzero; opacity: 1;" transform="translate(1.4065934065934016 1.4065934065934016) scale(2.81 2.81)" >
	<path d="M 89.317 27.68 c -0.739 -0.955 -1.973 -1.526 -3.3 -1.526 H 71.888 L 56.032 10.297 c -0.579 -0.579 -1.518 -0.579 -2.098 0 c -0.579 0.579 -0.579 1.518 0 2.098 l 13.759 13.759 H 22.307 l 13.759 -13.759 c 0.58 -0.579 0.58 -1.519 0 -2.098 c -0.58 -0.579 -1.518 -0.579 -2.098 0 L 18.112 26.154 H 3.983 c -1.329 0 -2.562 0.571 -3.301 1.527 c -0.616 0.796 -0.828 1.796 -0.582 2.74 l 12.222 47.012 c 0.413 1.593 2.01 2.704 3.883 2.704 h 57.59 c 1.872 0 3.469 -1.112 3.884 -2.704 L 89.9 30.42 C 90.146 29.475 89.933 28.476 89.317 27.68 z M 87.028 29.674 L 74.806 76.686 c -0.051 0.198 -0.44 0.484 -1.011 0.484 h -57.59 c -0.571 0 -0.96 -0.286 -1.012 -0.483 L 2.972 29.674 c -0.007 -0.027 -0.02 -0.078 0.058 -0.179 c 0.133 -0.172 0.463 -0.374 0.954 -0.374 h 82.033 c 0.49 0 0.82 0.201 0.953 0.374 C 87.048 29.597 87.036 29.648 87.028 29.674 z" style="stroke: none; stroke-width: 1; stroke-dasharray: none; stroke-linecap: butt; stroke-linejoin: miter; stroke-miterlimit: 10; fill: rgb(0,0,0); fill-rule: nonzero; opacity: 1;" transform=" matrix(1 0 0 1 0 0) " stroke-linecap="round" />
	<path d="M 45 38.337 c -0.82 0 -1.484 0.664 -1.484 1.484 v 27.923 c 0 0.819 0.664 1.484 1.484 1.484 s 1.484 -0.664 1.484 -1.484 V 39.821 C 46.483 39.001 45.819 38.337 45 38.337 z" style="stroke: none; stroke-width: 1; stroke-dasharray: none; stroke-linecap: butt; stroke-linejoin: miter; stroke-miterlimit: 10; fill: rgb(0,0,0); fill-rule: nonzero; opacity: 1;" transform=" matrix(1 0 0 1 0 0) " stroke-linecap="round" />
	<path d="M 59.835 38.337 c -0.819 0 -1.484 0.664 -1.484 1.484 v 27.923 c 0 0.819 0.664 1.484 1.484 1.484 c 0.819 0 1.484 -0.664 1.484 -1.484 V 39.821 C 61.319 39.001 60.654 38.337 59.835 38.337 z" style="stroke: none; stroke-width: 1; stroke-dasharray: none; stroke-linecap: butt; stroke-linejoin: miter; stroke-miterlimit: 10; fill: rgb(0,0,0); fill-rule: nonzero; opacity: 1;" transform=" matrix(1 0 0 1 0 0) " stroke-linecap="round" />
	<path d="M 30.164 38.337 c -0.82 0 -1.484 0.664 -1.484 1.484 v 27.923 c 0 0.819 0.664 1.484 1.484 1.484 s 1.484 -0.664 1.484 -1.484 V 39.821 C 31.648 39.001 30.984 38.337 30.164 38.337 z" style="stroke: none; stroke-width: 1; stroke-dasharray: none; stroke-linecap: butt; stroke-linejoin: miter; stroke-miterlimit: 10; fill: rgb(0,0,0); fill-rule: nonzero; opacity: 1;" transform=" matrix(1 0 0 1 0 0) " stroke-linecap="round" />
</g>
</svg>