<?xml version="1.0"?>
<svg xmlns="http://www.w3.org/2000/svg" xmlns:xlink="http://www.w3.org/1999/xlink" xmlns:svgjs="http://svgjs.com/svgjs" version="1.1" width="512" height="512" x="0" y="0" viewBox="0 0 24 24" style="enable-background:new 0 0 512 512" xml:space="preserve" class=""><circle r="12" cx="12" cy="12" fill="#1e88c9" shape="circle"/><g transform="matrix(0.7,0,0,0.7,3.6000000000000014,3.6000000000000014)"><path xmlns="http://www.w3.org/2000/svg" d="m7 9c-1.103 0-2-.897-2-2s.897-2 2-2 2 .897 2 2-.897 2-2 2zm0-3c-.551 0-1 .449-1 1s.449 1 1 1 1-.449 1-1-.449-1-1-1z" fill="#ffffff" data-original="#000000" style="" class=""/><path xmlns="http://www.w3.org/2000/svg" d="m9 20c-1.103 0-2-.897-2-2s.897-2 2-2 2 .897 2 2-.897 2-2 2zm0-3c-.551 0-1 .449-1 1s.449 1 1 1 1-.449 1-1-.449-1-1-1z" fill="#ffffff" data-original="#000000" style="" class=""/><path xmlns="http://www.w3.org/2000/svg" d="m18 15c-1.103 0-2-.897-2-2s.897-2 2-2 2 .897 2 2-.897 2-2 2zm0-3c-.551 0-1 .449-1 1s.449 1 1 1 1-.449 1-1-.449-1-1-1z" fill="#ffffff" data-original="#000000" style="" class=""/><path xmlns="http://www.w3.org/2000/svg" d="m12 24c-6.617 0-12-5.383-12-12s5.383-12 12-12c.676 0 1.361.06 2.036.177.157.027.292.129.363.272.07.143.068.312-.006.453-.261.495-.393 1.033-.393 1.598 0 1.93 1.57 3.5 3.5 3.5.274 0 .56-.043.875-.131.15-.041.312-.012.437.083.125.094.198.242.198.398 0 .016-.006.107-.007.124-.003 1.404 1.119 2.526 2.497 2.526.485 0 .947-.134 1.336-.389.135-.088.302-.106.453-.048.15.058.263.183.304.338.27 1.016.407 2.058.407 3.099 0 6.617-5.383 12-12 12zm0-23c-6.065 0-11 4.935-11 11s4.935 11 11 11 11-4.935 11-11c0-.748-.077-1.498-.23-2.236-.399.155-.829.236-1.27.236-1.773 0-3.243-1.326-3.47-3.038-.18.026-.356.038-.53.038-2.481 0-4.5-2.019-4.5-4.5 0-.495.079-.973.234-1.429-.412-.047-.825-.071-1.234-.071z" fill="#ffffff" data-original="#000000" style="" class=""/><path xmlns="http://www.w3.org/2000/svg" d="m4.5 13c-.128 0-.256-.049-.354-.146l-1-1c-.195-.195-.195-.512 0-.707s.512-.195.707 0l1 1c.195.195.195.512 0 .707-.097.097-.225.146-.353.146z" fill="#ffffff" data-original="#000000" style="" class=""/><path xmlns="http://www.w3.org/2000/svg" d="m13.5 15c-.128 0-.256-.049-.354-.146l-1-1c-.195-.195-.195-.512 0-.707s.512-.195.707 0l1 1c.195.195.195.512 0 .707-.097.097-.225.146-.353.146z" fill="#ffffff" data-original="#000000" style="" class=""/><path xmlns="http://www.w3.org/2000/svg" d="m14.5 19c-.128 0-.256-.049-.354-.146-.195-.195-.195-.512 0-.707l1-1c.195-.195.512-.195.707 0s.195.512 0 .707l-1 1c-.097.097-.225.146-.353.146z" fill="#ffffff" data-original="#000000" style="" class=""/><path xmlns="http://www.w3.org/2000/svg" d="m12.5 10c-.128 0-.256-.049-.354-.146-.195-.195-.195-.512 0-.707l1-1c.195-.195.512-.195.707 0s.195.512 0 .707l-1 1c-.097.097-.225.146-.353.146z" fill="#ffffff" data-original="#000000" style="" class=""/><path xmlns="http://www.w3.org/2000/svg" d="m8.5 13c-.128 0-.256-.049-.354-.146-.195-.195-.195-.512 0-.707l1-1c.195-.195.512-.195.707 0s.195.512 0 .707l-1 1c-.097.097-.225.146-.353.146z" fill="#ffffff" data-original="#000000" style="" class=""/></g></svg>
